<?xml version="1.0" encoding="utf-8"?>
<!-- Svg Vector Icons : http://www.onlinewebfonts.com/icon -->
<!DOCTYPE svg PUBLIC "-//W3C//DTD SVG 1.1//EN" "http://www.w3.org/Graphics/SVG/1.1/DTD/svg11.dtd">
<svg version="1.1" xmlns="http://www.w3.org/2000/svg" xmlns:xlink="http://www.w3.org/1999/xlink" x="0px" y="0px" viewBox="0 0 1000 1000" enable-background="new 0 0 1000 1000" xml:space="preserve">
<metadata> Svg Vector Icons : http://www.onlinewebfonts.com/icon </metadata>
<g><g transform="translate(0.000000,512.000000) scale(0.100000,-0.100000)"><path d="M4092.1,4996.3c-70.8-38.3-105.3-99.5-105.3-183.7c0-67,11.5-93.8,55.5-139.7l55.5-55.5h346.4h346.4v-426.8v-428.7l-597.1-99.5c-329.2-53.6-604.8-97.6-612.5-97.6c-9.6,0-15.3,206.7-15.3,457.4v457.4l-47.9,57.4c-61.2,72.7-137.8,91.9-225.8,53.6c-120.6-49.8-128.2-84.2-128.2-623.9c0-262.2-5.7-478.5-13.4-478.5c-76.6-1.9-681.3-116.8-712-137.8c-93.8-57.4-99.5-107.2-93.8-712l5.7-564.6l-181.8-32.5c-99.5-17.2-193.3-36.4-204.8-40.2c-19.1-7.7-24.9,80.4-24.9,403.8c0,451.7-9.6,499.5-105.3,543.6c-90,40.2-179.9,28.7-241.2-32.5l-55.5-55.5l-1.9-543.6c0-298.6,0-809.6,1.9-1138.8l1.9-597.1l-53.6-13.4c-294.7-67-359.8-109.1-357.9-231.6c0-55.5,195.2-486.1,780.9-1728.3c430.6-911,784.7-1668.9,790.5-1684.2c11.5-44-294.8-350.3-417.2-413.4c-91.9-49.8-122.5-55.5-275.6-55.5c-241.2,1.9-313.9,42.1-610.5,344.5c-126.3,128.2-279.4,266.1-336.9,302.4c-145.4,93.8-323.4,149.3-493.8,153.1c-135.9,3.8-141.6,1.9-197.1-59.3c-76.6-84.2-76.6-189.5-1.9-271.8c44-49.8,70.8-61.3,187.6-74.7c223.9-26.8,287.1-67,578-359.8c356-357.9,526.3-445.9,874.7-445.9c346.4,0,516.8,88,874.7,444c331.1,331.1,365.6,350.2,618.2,350.2c176.1,0,199-3.8,292.8-55.5c57.4-32.5,176.1-135.9,277.5-239.2c388.5-403.8,564.6-499.5,922.5-501.4c342.6-1.9,514.8,86.1,878.5,445.9c327.3,325.4,373.2,350.2,624,350.2c252.6,0,302.4-26.8,627.8-352.2c216.3-216.3,287.1-275.6,400-333c183.7-90,317.7-116.7,541.6-105.3c319.6,17.2,480.4,107.2,832.6,465.1c250.7,256.5,340.7,313.9,505.3,329.2c59.3,3.8,132.1,17.2,160.8,28.7c134,51.7,170.3,216.3,72.7,325.4c-53.6,61.3-61.2,63.2-191.4,61.3c-172.2-3.8-363.6-63.2-509.1-158.9c-63.2-42.1-216.3-179.9-340.7-306.2c-287.1-294.7-357.9-334.9-597.1-336.8c-143.5,0-187.6,7.7-267.9,45.9c-118.7,57.4-438.3,373.2-424.9,421.1c5.7,17.2,359.8,775.1,790.5,1686.1C8679.8-150.2,8875,280.4,8875,335.9c1.9,122.5-63.2,164.6-357.9,231.6l-53.6,13.4l1.9,597.1c1.9,329.2,1.9,840.2,1.9,1138.8l-1.9,543.6l-55.5,55.5c-97.6,95.7-262.2,68.9-325.4-53.6c-13.4-26.8-21.1-187.6-21.1-455.5c0-325.4-5.7-413.4-23-405.8c-13.4,3.8-107.2,23-206.7,40.2l-181.8,32.5l5.7,564.6c5.7,604.8,0,654.6-93.8,712c-30.6,21.1-635.4,135.9-710.1,137.8c-9.6,0-15.3,216.3-15.3,478.5c0,539.7-7.7,574.2-128.2,623.9c-88,38.3-164.6,19.1-225.8-53.6l-47.8-57.4v-457.4c0-250.7-5.7-457.4-13.4-457.4c-9.6,0-285.2,44-612.5,97.6l-599.1,99.5v428.7v426.8h346.4h346.4l55.5,55.5c91.9,93.8,65.1,271.8-49.7,323.5C5843.3,5026.9,4147.6,5028.8,4092.1,4996.3z M6147.7,3191.5c593.3-97.6,1081.4-183.7,1085.2-187.6c5.8-3.8,5.8-197.1,3.8-428.7l-5.7-421.1L6117,2364.7l-1115.8,208.6l-1113.9-208.6l-1115.8-210.5l-5.7,421.1c-1.9,231.6-1.9,424.9,3.8,428.7c15.3,15.3,2126.4,365.6,2212.5,367.5C5029.9,3371.4,5554.3,3291,6147.7,3191.5z M6547.7,1867.1l1515.8-283.3v-453.6c0-250.7-5.7-455.5-13.4-455.5c-5.7,0-694.8,151.2-1531.1,336.9l-1517.7,336.9l-1517.7-336.9C2649,825.9,1960,674.7,1952.3,674.7c-7.7,0-13.4,204.8-13.4,455.5v453.6l1489,281.4c817.3,153.1,1513.9,281.3,1544.5,283.3C5005,2148.4,5713.2,2022.1,6547.7,1867.1z M6689.3,557.9c909.1-201,1659.4-373.2,1668.9-380.9c11.5-11.5-1133-2484.3-1358.9-2932.1l-45.9-90l-84.2,36.4c-241.2,107.2-564.6,91.9-832.6-40.2c-141.6-70.8-189.5-109.1-396.2-317.7c-204.8-210.5-369.4-350.2-413.4-350.2c-9.6,0-15.3,865.1-15.3,1923.5c0,2072.8,1.9,2013.4-97.6,2084.3c-72.7,49.8-178,40.2-250.7-24.9l-63.1-55.5l-5.7-1963.7c-1.9-1079.5-9.6-1963.7-15.3-1963.7c-45.9,0-170.3,101.4-390.4,315.8c-289,285.2-388.5,356-583.7,417.2c-179.9,55.5-445.9,53.6-622-3.8c-68.9-21-130.2-40.2-135.9-40.2c-19.1,0-1418.2,2987.6-1404.8,3001c15.3,17.2,3276.6,746.4,3343.6,748.3C5016.5,923.5,5782.1,758.9,6689.3,557.9z"/><path d="M3374.4,1639.3c-482.3-97.6-509.1-105.3-558.9-160.8c-97.6-105.3-61.2-262.2,70.8-317.7c57.4-23,109.1-17.2,597.1,80.4c292.8,57.4,556.9,114.8,585.6,126.3c116.8,45.9,147.4,229.7,53.6,323.5C4044.2,1767.5,3984.9,1763.7,3374.4,1639.3z"/><path d="M5879.7,1691c-105.3-105.3-57.4-304.3,82.3-336.9c23-5.7,279.4-57.4,566.5-114.8c480.4-95.7,528.3-101.4,587.6-78.5c132.1,55.5,168.4,212.4,72.7,317.7c-51.7,55.5-78.5,63.2-578,162.7c-289,57.4-558.8,105.3-601,105.3C5954.3,1746.5,5921.8,1733.1,5879.7,1691z"/><path d="M417.4-3578.1c-70.8-38.3-105.3-99.5-105.3-183.7c0-109.1,78.5-195.2,176.1-195.2c105.3,0,281.3-53.6,367.5-112.9c44-30.6,153.1-132,241.2-225.8c338.8-357.9,574.2-484.2,909.1-484.2s570.3,126.3,909.1,484.2c88,93.8,197.1,195.2,241.2,225.8c109.1,74.6,289,118.7,415.3,103.4c176.1-23,271.8-84.2,558.9-367.5c294.7-290.9,407.7-365.5,633.5-419.1c166.5-38.3,413.4-26.8,572.3,28.7c176.1,63.2,306.2,158.8,556.9,415.3c279.4,287.1,373.2,338.8,601,340.7c227.8,1.9,321.5-51.7,602.9-340.7c250.7-256.5,379-352.1,555-413.4c160.8-55.5,405.8-68.9,570.3-30.6c233.5,55.5,338.8,124.4,652.7,430.6c313.9,306.2,361.7,334.9,595.2,359.8c90,9.6,126.3,23,166.5,65.1c90,90,61.3,267.9-51.7,319.6c-109.1,49.8-334.9,15.3-543.6-82.3c-116.7-55.5-183.7-109.1-401.9-321.5c-143.5-141.6-287.1-273.7-319.6-296.7c-90-63.2-279.4-105.3-396.2-90c-179.9,23-277.5,86.1-562.7,369.4c-187.6,187.6-298.6,281.3-380.9,325.4c-298.6,156.9-671.8,156.9-972.3,0c-84.2-44-189.5-135.9-377-323.4c-319.6-317.7-403.8-369.4-627.8-369.4c-231.6,0-325.4,53.6-604.8,340.7c-250.7,256.5-379,352.2-555,413.4c-160.8,57.4-405.8,68.9-572.3,30.6c-225.9-53.6-338.8-128.2-652.7-434.5c-321.5-312-390.4-350.3-612.5-350.3s-290.9,38.3-612.5,350.3c-312,304.3-426.8,380.9-643.1,432.5C606.8-3551.3,470.9-3547.4,417.4-3578.1z"/></g></g>
</svg>